# xmcd
# Copyright (C) 1995-1998 Ti Kan
#
# Track frame offsets:
#       150
#       10949
#       24755
#       51462
#       73583
#       100801
#       117802
#       141284
#       177795
#       194283
#
# Disc length: 2902 seconds
#
# Revision: 0
# Processed by: cddbd v1.5.2PL0 Copyright (c) Steve Scherf et al.
# Submitted via: CD-Import v1.0
#
DISCID=810b540a
DTITLE=Chk Chk Chk - Myth Takes
DYEAR=2008
DGENRE=
TTITLE0=Myth Takes
TTITLE1=All My Heroes Are Weirdos
TTITLE2=Must Be The Moon
TTITLE3=A New Name
TTITLE4=Heart Of Hearts
TTITLE5=Sweet Life
TTITLE6=Yadnus
TTITLE7=Bend Over Beethoven
TTITLE8=Break In Case Of Anything
TTITLE9=Infinifold
EXTD=
EXTT0=
EXTT1=
EXTT2=
EXTT3=
EXTT4=
EXTT5=
EXTT6=
EXTT7=
EXTT8=
EXTT9=
PLAYORDER=
